<mxfile modified="2024-02-29T15:24:43.010Z" host="Electron" agent="Mozilla/5.0 (Macintosh; Intel Mac OS X 10_15_7) AppleWebKit/537.36 (KHTML, like Gecko) draw.io/23.0.2 Chrome/120.0.6099.109 Electron/28.1.0 Safari/537.36" etag="BYa4rALL5bC0u8r6do6P" version="23.0.2" type="device">
  <diagram id="J0wjJaXC5ql1yZsc73VE" name="sample-servers">
    <mxGraphModel dx="1242" dy="1991" grid="1" gridSize="10" guides="1" tooltips="1" connect="1" arrows="1" fold="1" page="1" pageScale="1" pageWidth="827" pageHeight="1169" math="0" shadow="0">
      <root>
        <mxCell id="0" />
        <mxCell id="1" parent="0" />
        <mxCell id="wNxGi-3zcVpVVrWjYTgV-6" style="edgeStyle=orthogonalEdgeStyle;rounded=0;orthogonalLoop=1;jettySize=auto;html=1;exitX=0;exitY=0.5;exitDx=0;exitDy=0;entryX=1;entryY=0.5;entryDx=0;entryDy=0;" parent="1" source="n2IOeX6zb0sDYYAtPlNL-1" target="wNxGi-3zcVpVVrWjYTgV-5" edge="1">
          <mxGeometry relative="1" as="geometry" />
        </mxCell>
        <mxCell id="n2IOeX6zb0sDYYAtPlNL-1" value="active-metadata-store" style="rounded=0;whiteSpace=wrap;html=1;verticalAlign=middle;fillColor=#d5e8d4;strokeColor=#82b366;" parent="1" vertex="1">
          <mxGeometry x="320" y="118" width="140" height="150" as="geometry" />
        </mxCell>
        <mxCell id="n2IOeX6zb0sDYYAtPlNL-5" style="edgeStyle=orthogonalEdgeStyle;rounded=0;orthogonalLoop=1;jettySize=auto;html=1;exitX=1;exitY=0.5;exitDx=0;exitDy=0;entryX=0;entryY=0.25;entryDx=0;entryDy=0;" parent="1" source="n2IOeX6zb0sDYYAtPlNL-2" target="n2IOeX6zb0sDYYAtPlNL-1" edge="1">
          <mxGeometry relative="1" as="geometry" />
        </mxCell>
        <mxCell id="n2IOeX6zb0sDYYAtPlNL-2" value="integration-daemon" style="rounded=0;whiteSpace=wrap;html=1;verticalAlign=top;fillColor=#e1d5e7;strokeColor=#9673a6;" parent="1" vertex="1">
          <mxGeometry x="110" y="30" width="140" height="105" as="geometry" />
        </mxCell>
        <mxCell id="n2IOeX6zb0sDYYAtPlNL-6" style="edgeStyle=orthogonalEdgeStyle;rounded=0;orthogonalLoop=1;jettySize=auto;html=1;exitX=1;exitY=0.5;exitDx=0;exitDy=0;entryX=0;entryY=0.75;entryDx=0;entryDy=0;" parent="1" source="n2IOeX6zb0sDYYAtPlNL-3" target="n2IOeX6zb0sDYYAtPlNL-1" edge="1">
          <mxGeometry relative="1" as="geometry" />
        </mxCell>
        <mxCell id="n2IOeX6zb0sDYYAtPlNL-3" value="engine-host" style="rounded=0;whiteSpace=wrap;html=1;verticalAlign=top;fillColor=#e1d5e7;strokeColor=#9673a6;" parent="1" vertex="1">
          <mxGeometry x="110" y="268" width="140" height="110" as="geometry" />
        </mxCell>
        <mxCell id="n2IOeX6zb0sDYYAtPlNL-7" value="Survey Action&lt;br&gt;Services" style="rounded=0;whiteSpace=wrap;html=1;" parent="1" vertex="1">
          <mxGeometry x="120" y="308" width="120" height="60" as="geometry" />
        </mxCell>
        <mxCell id="n2IOeX6zb0sDYYAtPlNL-8" value="Integration&lt;br&gt;Connectors" style="rounded=0;whiteSpace=wrap;html=1;" parent="1" vertex="1">
          <mxGeometry x="120" y="60" width="120" height="60" as="geometry" />
        </mxCell>
        <mxCell id="n2IOeX6zb0sDYYAtPlNL-9" value="Metadata&lt;br&gt;Repository" style="shape=cylinder3;whiteSpace=wrap;html=1;boundedLbl=1;backgroundOutline=1;size=4;fillColor=#f5f5f5;fontColor=#333333;strokeColor=#666666;" parent="1" vertex="1">
          <mxGeometry x="347" y="320" width="85" height="60" as="geometry" />
        </mxCell>
        <mxCell id="n2IOeX6zb0sDYYAtPlNL-10" style="edgeStyle=orthogonalEdgeStyle;rounded=0;orthogonalLoop=1;jettySize=auto;html=1;exitX=0.5;exitY=1;exitDx=0;exitDy=0;entryX=0.5;entryY=0;entryDx=0;entryDy=0;entryPerimeter=0;" parent="1" source="n2IOeX6zb0sDYYAtPlNL-1" target="n2IOeX6zb0sDYYAtPlNL-9" edge="1">
          <mxGeometry relative="1" as="geometry" />
        </mxCell>
        <mxCell id="wNxGi-3zcVpVVrWjYTgV-1" value="simple-metadata-store&lt;br&gt;&lt;br&gt;&lt;br&gt;&lt;br&gt;" style="rounded=0;whiteSpace=wrap;html=1;verticalAlign=middle;fillColor=#d5e8d4;strokeColor=#82b366;" parent="1" vertex="1">
          <mxGeometry x="550" y="118" width="140" height="150" as="geometry" />
        </mxCell>
        <mxCell id="wNxGi-3zcVpVVrWjYTgV-2" value="Metadata&lt;br&gt;Repository" style="shape=cylinder3;whiteSpace=wrap;html=1;boundedLbl=1;backgroundOutline=1;size=4;" parent="1" vertex="1">
          <mxGeometry x="585" y="200" width="70" height="50" as="geometry" />
        </mxCell>
        <mxCell id="wNxGi-3zcVpVVrWjYTgV-4" value="XTDB (KV)" style="text;html=1;align=center;verticalAlign=middle;resizable=0;points=[];autosize=1;strokeColor=none;fillColor=none;" parent="1" vertex="1">
          <mxGeometry x="432" y="335" width="80" height="30" as="geometry" />
        </mxCell>
        <mxCell id="wNxGi-3zcVpVVrWjYTgV-7" style="edgeStyle=orthogonalEdgeStyle;rounded=0;orthogonalLoop=1;jettySize=auto;html=1;exitX=0.5;exitY=0;exitDx=0;exitDy=0;entryX=0.5;entryY=1;entryDx=0;entryDy=0;" parent="1" source="wNxGi-3zcVpVVrWjYTgV-5" target="n2IOeX6zb0sDYYAtPlNL-2" edge="1">
          <mxGeometry relative="1" as="geometry" />
        </mxCell>
        <mxCell id="wNxGi-3zcVpVVrWjYTgV-8" style="edgeStyle=orthogonalEdgeStyle;rounded=0;orthogonalLoop=1;jettySize=auto;html=1;exitX=0.5;exitY=1;exitDx=0;exitDy=0;" parent="1" source="wNxGi-3zcVpVVrWjYTgV-5" target="n2IOeX6zb0sDYYAtPlNL-3" edge="1">
          <mxGeometry relative="1" as="geometry" />
        </mxCell>
        <mxCell id="wNxGi-3zcVpVVrWjYTgV-5" value="Kafka Event Bus" style="rounded=0;whiteSpace=wrap;html=1;fillColor=#ffe6cc;strokeColor=#d79b00;" parent="1" vertex="1">
          <mxGeometry x="65" y="176.5" width="230" height="33" as="geometry" />
        </mxCell>
        <mxCell id="wNxGi-3zcVpVVrWjYTgV-10" style="edgeStyle=orthogonalEdgeStyle;rounded=0;orthogonalLoop=1;jettySize=auto;html=1;exitX=0.5;exitY=1;exitDx=0;exitDy=0;exitPerimeter=0;" parent="1" source="wNxGi-3zcVpVVrWjYTgV-9" target="n2IOeX6zb0sDYYAtPlNL-1" edge="1">
          <mxGeometry relative="1" as="geometry" />
        </mxCell>
        <mxCell id="wNxGi-3zcVpVVrWjYTgV-9" value="Open&lt;br&gt;Connector&lt;br&gt;Archive" style="shape=note;whiteSpace=wrap;html=1;backgroundOutline=1;darkOpacity=0.05;size=19;" parent="1" vertex="1">
          <mxGeometry x="350" y="-30" width="80" height="100" as="geometry" />
        </mxCell>
        <mxCell id="wNxGi-3zcVpVVrWjYTgV-11" style="edgeStyle=orthogonalEdgeStyle;rounded=0;orthogonalLoop=1;jettySize=auto;html=1;exitX=0.5;exitY=1;exitDx=0;exitDy=0;exitPerimeter=0;" parent="1" source="wNxGi-3zcVpVVrWjYTgV-12" edge="1">
          <mxGeometry relative="1" as="geometry">
            <mxPoint x="620" y="118" as="targetPoint" />
          </mxGeometry>
        </mxCell>
        <mxCell id="wNxGi-3zcVpVVrWjYTgV-12" value="Open&lt;br&gt;Connector&lt;br&gt;Archive" style="shape=note;whiteSpace=wrap;html=1;backgroundOutline=1;darkOpacity=0.05;size=19;" parent="1" vertex="1">
          <mxGeometry x="580" y="-30" width="80" height="100" as="geometry" />
        </mxCell>
      </root>
    </mxGraphModel>
  </diagram>
</mxfile>
